{
  "source": "C:\\Users\\Peter\\Desktop\\stuff\\MIUN\\quantitative_research\\video_compression\\videos\\BVI-HD\\RockWave_1920x1080_30fps.mp4",
  "output": "C:\\Users\\Peter\\Desktop\\stuff\\MIUN\\quantitative_research\\video_compression\\compressed_videos\\BVI-HD\\vp9\\2\\RockWave_1920x1080_30fps_vp9.webm",
  "codec": "vp9",
  "ok": "Input #0, mov,mp4,m4a,3gp,3g2,mj2, from 'C:\\Users\\Peter\\Desktop\\stuff\\MIUN\\quantitative_research\\video_compression\\videos\\BVI-HD\\RockWave_1920x1080_30fps.mp4':\n  Metadata:\n    major_brand     : isom\n    minor_version   : 512\n    compatible_brands: isomiso2avc1mp41\n    encoder         : Lavf54.28.101\n  Duration: 00:00:05.00, start: 0.000000, bitrate: 303557 kb/s\n  Stream #0:0[0x1](und): Video: h264 (High 4:4:4 Predictive) (avc1 / 0x31637661), yuv420p(progressive), 1920x1080, 303553 kb/s, 30 fps, 30 tbr, 30 tbn (default)\n    Metadata:\n      handler_name    : VideoHandler\n      vendor_id       : [0][0][0][0]\n[out#0/webm @ 0000021861189240] Codec AVOption b:a (set bitrate (in bits/s)) has not been used for any stream. The most likely reason is either wrong type (e.g. a video option with no video streams) or that it is a private option of some decoder which was not actually used for any stream.\nStream mapping:\n  Stream #0:0 -> #0:0 (h264 (native) -> vp9 (libvpx-vp9))\nPress [q] to stop, [?] for help\n[libvpx-vp9 @ 0000021861d10180] v1.15.2-100-g40561f514\nOutput #0, webm, to 'C:\\Users\\Peter\\Desktop\\stuff\\MIUN\\quantitative_research\\video_compression\\compressed_videos\\BVI-HD\\vp9\\2\\RockWave_1920x1080_30fps_vp9.webm':\n  Metadata:\n    major_brand     : isom\n    minor_version   : 512\n    compatible_brands: isomiso2avc1mp41\n    encoder         : Lavf62.3.100\n  Stream #0:0(und): Video: vp9, yuv420p(tv, progressive), 1920x1080, q=2-31, 2000 kb/s, 30 fps, 1k tbn (default)\n    Metadata:\n      encoder         : Lavc62.11.100 libvpx-vp9\n      handler_name    : VideoHandler\n      vendor_id       : [0][0][0][0]\n    Side data:\n      cpb: bitrate max/min/avg: 0/0/0 buffer size: 2000000 vbv_delay: N/A\nframe=    0 fps=0.0 q=0.0 size=       0KiB time=N/A bitrate=N/A speed=N/A elapsed=0:00:00.51    \nframe=    0 fps=0.0 q=0.0 size=       0KiB time=N/A bitrate=N/A speed=N/A elapsed=0:00:01.03    \nframe=    2 fps=1.3 q=48.0 size=       1KiB time=00:00:00.06 bitrate=  76.1kbits/s speed=0.0427x elapsed=0:00:01.56    \nframe=    5 fps=2.4 q=63.0 size=       1KiB time=00:00:00.16 bitrate=  30.4kbits/s speed=0.0798x elapsed=0:00:02.08    \nframe=    7 fps=2.7 q=63.0 size=       1KiB time=00:00:00.23 bitrate=  21.7kbits/s speed=0.0896x elapsed=0:00:02.60    \nframe=    9 fps=2.9 q=63.0 size=       1KiB time=00:00:00.30 bitrate=  16.9kbits/s speed=0.0964x elapsed=0:00:03.11    \nframe=   11 fps=3.0 q=42.0 size=       1KiB time=00:00:00.36 bitrate=  13.8kbits/s speed=0.101x elapsed=0:00:03.62    \nframe=   14 fps=3.4 q=63.0 size=       1KiB time=00:00:00.46 bitrate=  10.9kbits/s speed=0.113x elapsed=0:00:04.14    \nframe=   16 fps=3.4 q=63.0 size=       1KiB time=00:00:00.53 bitrate=   9.5kbits/s speed=0.114x elapsed=0:00:04.67    \nframe=   18 fps=3.5 q=63.0 size=       1KiB time=00:00:00.60 bitrate=   8.5kbits/s speed=0.116x elapsed=0:00:05.19    \nframe=   20 fps=3.5 q=63.0 size=       1KiB time=00:00:00.66 bitrate=   7.6kbits/s speed=0.117x elapsed=0:00:05.70    \nframe=   22 fps=3.5 q=63.0 size=       1KiB time=00:00:00.73 bitrate=   6.9kbits/s speed=0.118x elapsed=0:00:06.22    \nframe=   25 fps=3.7 q=63.0 size=       1KiB time=00:00:00.83 bitrate=   6.1kbits/s speed=0.124x elapsed=0:00:06.73    \nframe=   27 fps=3.7 q=63.0 size=       1KiB time=00:00:00.90 bitrate=   5.6kbits/s speed=0.124x elapsed=0:00:07.25    \nframe=   29 fps=3.7 q=63.0 size=       1KiB time=00:00:00.96 bitrate=   5.2kbits/s speed=0.124x elapsed=0:00:07.76    \nframe=   31 fps=3.7 q=49.0 size=       1KiB time=00:00:01.03 bitrate=   4.9kbits/s speed=0.125x elapsed=0:00:08.28    \nframe=   33 fps=3.8 q=63.0 size=       1KiB time=00:00:01.10 bitrate=   4.6kbits/s speed=0.125x elapsed=0:00:08.79    \nframe=   36 fps=3.9 q=63.0 size=       1KiB time=00:00:01.20 bitrate=   4.2kbits/s speed=0.129x elapsed=0:00:09.31    \nframe=   38 fps=3.9 q=63.0 size=       1KiB time=00:00:01.26 bitrate=   4.0kbits/s speed=0.129x elapsed=0:00:09.83    \nframe=   40 fps=3.9 q=63.0 size=       1KiB time=00:00:01.33 bitrate=   3.8kbits/s speed=0.129x elapsed=0:00:10.34    \nframe=   42 fps=3.9 q=63.0 size=       1KiB time=00:00:01.40 bitrate=   3.6kbits/s speed=0.129x elapsed=0:00:10.86    \nframe=   44 fps=3.9 q=63.0 size=       1KiB time=00:00:01.46 bitrate=   3.5kbits/s speed=0.129x elapsed=0:00:11.37    \nframe=   46 fps=3.9 q=63.0 size=       1KiB time=00:00:01.53 bitrate=   3.3kbits/s speed=0.129x elapsed=0:00:11.89    \nframe=   48 fps=3.9 q=63.0 size=       1KiB time=00:00:01.60 bitrate=   3.2kbits/s speed=0.129x elapsed=0:00:12.41    \nframe=   50 fps=3.9 q=63.0 size=       1KiB time=00:00:01.66 bitrate=   3.0kbits/s speed=0.129x elapsed=0:00:12.93    \nframe=   52 fps=3.9 q=63.0 size=       1KiB time=00:00:01.73 bitrate=   2.9kbits/s speed=0.129x elapsed=0:00:13.44    \nframe=   55 fps=3.9 q=63.0 size=       1KiB time=00:00:01.83 bitrate=   2.8kbits/s speed=0.131x elapsed=0:00:13.95    \nframe=   57 fps=3.9 q=63.0 size=       1KiB time=00:00:01.90 bitrate=   2.7kbits/s speed=0.131x elapsed=0:00:14.47    \nframe=   59 fps=3.9 q=63.0 size=       1KiB time=00:00:01.96 bitrate=   2.6kbits/s speed=0.131x elapsed=0:00:14.98    \nframe=   62 fps=4.0 q=63.0 size=       1KiB time=00:00:02.06 bitrate=   2.5kbits/s speed=0.133x elapsed=0:00:15.50    \nframe=   64 fps=4.0 q=63.0 size=       1KiB time=00:00:02.13 bitrate=   2.4kbits/s speed=0.133x elapsed=0:00:16.01    \nframe=   66 fps=4.0 q=63.0 size=       1KiB time=00:00:02.20 bitrate=   2.3kbits/s speed=0.133x elapsed=0:00:16.53    \nframe=   69 fps=4.0 q=63.0 size=       1KiB time=00:00:02.30 bitrate=   2.2kbits/s speed=0.135x elapsed=0:00:17.04    \nframe=   71 fps=4.0 q=53.0 size=       1KiB time=00:00:02.36 bitrate=   2.1kbits/s speed=0.135x elapsed=0:00:17.56    \nframe=   73 fps=4.0 q=63.0 size=       1KiB time=00:00:02.43 bitrate=   2.1kbits/s speed=0.135x elapsed=0:00:18.08    \nframe=   76 fps=4.1 q=63.0 size=       1KiB time=00:00:02.53 bitrate=   2.0kbits/s speed=0.136x elapsed=0:00:18.59    \nframe=   78 fps=4.1 q=63.0 size=       1KiB time=00:00:02.60 bitrate=   2.0kbits/s speed=0.136x elapsed=0:00:19.11    \nframe=   80 fps=4.1 q=63.0 size=       1KiB time=00:00:02.66 bitrate=   1.9kbits/s speed=0.136x elapsed=0:00:19.63    \nframe=   83 fps=4.1 q=63.0 size=       1KiB time=00:00:02.76 bitrate=   1.8kbits/s speed=0.137x elapsed=0:00:20.15    \nframe=   85 fps=4.1 q=63.0 size=       1KiB time=00:00:02.83 bitrate=   1.8kbits/s speed=0.137x elapsed=0:00:20.68    \nframe=   87 fps=4.1 q=63.0 size=       1KiB time=00:00:02.90 bitrate=   1.7kbits/s speed=0.137x elapsed=0:00:21.18    \nframe=   90 fps=4.1 q=63.0 size=       1KiB time=00:00:03.00 bitrate=   1.7kbits/s speed=0.138x elapsed=0:00:21.70    \nframe=   92 fps=4.1 q=63.0 size=       1KiB time=00:00:03.06 bitrate=   1.7kbits/s speed=0.138x elapsed=0:00:22.22    \nframe=   95 fps=4.2 q=63.0 size=       1KiB time=00:00:03.16 bitrate=   1.6kbits/s speed=0.139x elapsed=0:00:22.73    \nframe=   97 fps=4.2 q=63.0 size=       1KiB time=00:00:03.23 bitrate=   1.6kbits/s speed=0.139x elapsed=0:00:23.24    \nframe=  100 fps=4.2 q=63.0 size=       1KiB time=00:00:03.33 bitrate=   1.5kbits/s speed=0.14x elapsed=0:00:23.76    \nframe=  102 fps=4.2 q=63.0 size=       1KiB time=00:00:03.40 bitrate=   1.5kbits/s speed=0.14x elapsed=0:00:24.28    \nframe=  104 fps=4.2 q=63.0 size=       1KiB time=00:00:03.46 bitrate=   1.5kbits/s speed=0.14x elapsed=0:00:24.80    \nframe=  107 fps=4.2 q=63.0 size=       1KiB time=00:00:03.56 bitrate=   1.4kbits/s speed=0.141x elapsed=0:00:25.31    \nframe=  110 fps=4.3 q=63.0 size=       1KiB time=00:00:03.66 bitrate=   1.4kbits/s speed=0.142x elapsed=0:00:25.83    \nframe=  112 fps=4.2 q=63.0 size=       1KiB time=00:00:03.73 bitrate=   1.4kbits/s speed=0.142x elapsed=0:00:26.35    \nframe=  114 fps=4.2 q=63.0 size=       1KiB time=00:00:03.80 bitrate=   1.3kbits/s speed=0.141x elapsed=0:00:26.87    \nframe=  117 fps=4.3 q=63.0 size=       1KiB time=00:00:03.90 bitrate=   1.3kbits/s speed=0.142x elapsed=0:00:27.39    \nframe=  120 fps=4.3 q=63.0 size=       1KiB time=00:00:04.00 bitrate=   1.3kbits/s speed=0.143x elapsed=0:00:27.90    \nframe=  122 fps=4.3 q=63.0 size=       1KiB time=00:00:04.06 bitrate=   1.2kbits/s speed=0.143x elapsed=0:00:28.42    \nframe=  124 fps=4.3 q=63.0 size=       1KiB time=00:00:04.13 bitrate=   1.2kbits/s speed=0.143x elapsed=0:00:28.94    \nframe=  126 fps=4.3 q=63.0 size=       1KiB time=00:00:04.20 bitrate=   1.2kbits/s speed=0.143x elapsed=0:00:29.46    \nframe=  126 fps=4.2 q=63.0 size=       1KiB time=00:00:04.20 bitrate=   1.2kbits/s speed=0.14x elapsed=0:00:29.96    \nframe=  126 fps=4.1 q=63.0 size=       1KiB time=00:00:04.20 bitrate=   1.2kbits/s speed=0.138x elapsed=0:00:30.49    \nframe=  126 fps=4.1 q=63.0 size=       1KiB time=00:00:04.20 bitrate=   1.2kbits/s speed=0.135x elapsed=0:00:31.00    \nframe=  126 fps=4.0 q=63.0 size=       1KiB time=00:00:04.20 bitrate=   1.2kbits/s speed=0.133x elapsed=0:00:31.51    \nframe=  126 fps=3.9 q=63.0 size=       1KiB time=00:00:04.20 bitrate=   1.2kbits/s speed=0.131x elapsed=0:00:32.03    \nframe=  126 fps=3.9 q=63.0 size=       1KiB time=00:00:04.20 bitrate=   1.2kbits/s speed=0.129x elapsed=0:00:32.55    \nframe=  126 fps=3.8 q=63.0 size=       1KiB time=00:00:04.20 bitrate=   1.2kbits/s speed=0.127x elapsed=0:00:33.06    \nframe=  126 fps=3.8 q=63.0 size=       1KiB time=00:00:04.20 bitrate=   1.2kbits/s speed=0.125x elapsed=0:00:33.58    \n[out#0/webm @ 0000021861189240] video:2030KiB audio:0KiB subtitle:0KiB other streams:0KiB global headers:0KiB muxing overhead: 0.084877%\nframe=  150 fps=4.4 q=63.0 Lsize=    2031KiB time=00:00:05.00 bitrate=3328.1kbits/s speed=0.147x elapsed=0:00:33.90    \n",
  "seconds": 34.206231117248535,
  "probe_out": {}
}